<svg id="Layer_1" data-name="Layer 1" xmlns="http://www.w3.org/2000/svg" viewBox="0 0 106.57 37.17"><defs><style>.cls-1{fill:none;stroke:#3d4752;stroke-miterlimit:10;stroke-width:0.9px;}.cls-2{fill:#3d4752;}</style></defs><title>erd-chens</title><line class="cls-1" x1="4.53" y1="13.87" x2="102.04" y2="13.87"/><path class="cls-2" d="M11.47,32a1.34,1.34,0,0,1,1.22-.74,1.2,1.2,0,0,1,1.19.77,1.41,1.41,0,0,1,1.3-.77c1,0,1.43.61,1.43,1.56v2.38h-.76V33c0-.66-.19-1.17-.85-1.17-1.39,0-.87,2-1,3.3h-.76V32.89c0-.61-.21-1-.81-1s-1,.58-1,1.26v2h-.76c0-1.28,0-2.61,0-3.84h.72c0,.16,0,.45,0,.63h0"/><path class="cls-2" d="M19.19,34.67a1.09,1.09,0,0,0,1.11-1.33c-.83,0-1.9,0-1.9.73,0,.44.35.59.79.6m-1.56-.58c0-1.24,1.4-1.26,2.67-1.3,0-.65-.35-.95-.95-.95a1.6,1.6,0,0,0-1.09.45l-.4-.49a2.26,2.26,0,0,1,1.57-.58A1.42,1.42,0,0,1,21,32.74a23.93,23.93,0,0,0,.06,2.44H20.4a2.56,2.56,0,0,1-.06-.55h0a1.47,1.47,0,0,1-1.29.65C18.23,35.27,17.63,34.91,17.63,34.09Z"/><path class="cls-2" d="M22.3,35.18c0-1.28,0-2.61,0-3.84H23c0,.16,0,.45,0,.63h0a1.34,1.34,0,0,1,1.25-.74c1,0,1.43.61,1.43,1.56v2.38H25V33c0-.68-.19-1.17-.87-1.17s-1,.57-1,1.26v2H22.3"/><path class="cls-2" d="M28.82,31.86a1.39,1.39,0,0,0,0,2.78,1.39,1.39,0,0,0,0-2.78m-.14-.63a1.7,1.7,0,0,1,1.39.68V29.05h.76v6.12h-.74a3.73,3.73,0,0,0,0-.61,1.6,1.6,0,0,1-1.39.71,1.84,1.84,0,0,1-1.94-2A1.86,1.86,0,0,1,28.68,31.23Z"/><path class="cls-2" d="M33.44,34.67a1.09,1.09,0,0,0,1.11-1.33c-.83,0-1.9,0-1.9.73,0,.44.35.59.79.6m-1.56-.58c0-1.24,1.4-1.26,2.67-1.3,0-.65-.35-.95-.95-.95a1.6,1.6,0,0,0-1.09.45l-.4-.49a2.26,2.26,0,0,1,1.57-.58,1.42,1.42,0,0,1,1.6,1.51,23.93,23.93,0,0,0,.06,2.44h-.69a2.56,2.56,0,0,1-.06-.55h0a1.47,1.47,0,0,1-1.29.65C32.47,35.27,31.88,34.91,31.88,34.09Z"/><path class="cls-2" d="M37.69,35.24c-.75,0-1.13-.43-1.12-1.2V32h-.74v-.62h.74v-1.1h.75v1.1h1V32h-1v2c0,.44.13.64.54.65a1.09,1.09,0,0,0,.45-.1l0,.62a1.94,1.94,0,0,1-.65.11"/><path class="cls-2" d="M40.95,34.64a1.39,1.39,0,1,0-1.28-1.39,1.24,1.24,0,0,0,1.28,1.39m0-3.41a2,2,0,1,1-2.07,2A1.9,1.9,0,0,1,40.95,31.23Z"/><path class="cls-2" d="M44.07,35.18c0-1.28,0-2.61,0-3.84h.72c0,.16,0,.48,0,.65h0a1.3,1.3,0,0,1,1.47-.72l0,.7a1.1,1.1,0,0,0-1.43,1.19v2h-.76"/><path class="cls-2" d="M47.27,31.34c.41,1,.78,2,1.21,3l1.06-3h.81l-1.86,4.75a1.4,1.4,0,0,1-1.83,1l.07-.67a.79.79,0,0,0,.83-.1,4.73,4.73,0,0,0,.51-1.12l-1.64-3.84h.85"/><path class="cls-2" d="M53.12,35.18c0-1.28,0-2.61,0-3.84h.72c0,.16,0,.48,0,.65h0a1.3,1.3,0,0,1,1.47-.72l0,.7a1.1,1.1,0,0,0-1.43,1.19v2h-.76"/><path class="cls-2" d="M57.64,31.23c1.3,0,1.9.87,1.84,2.25h-3a1.2,1.2,0,0,0,1.25,1.17,1.28,1.28,0,0,0,1.12-.58l.53.43a1.92,1.92,0,0,1-1.65.79,1.86,1.86,0,0,1-2-2,1.86,1.86,0,0,1,2-2m1.08,1.68a1.07,1.07,0,0,0-1.54-1,1.12,1.12,0,0,0-.75,1Z"/><polyline class="cls-2" points="61.32 35.18 60.56 35.18 60.56 32.12 60.56 29.05 61.32 29.05 61.32 32.12 61.32 35.18"/><path class="cls-2" d="M63.93,34.67A1.09,1.09,0,0,0,65,33.35c-.83,0-1.9,0-1.9.73,0,.44.35.59.79.6m-1.56-.58c0-1.24,1.4-1.26,2.67-1.3,0-.65-.35-.95-.95-.95a1.6,1.6,0,0,0-1.09.45l-.4-.49a2.26,2.26,0,0,1,1.57-.58,1.42,1.42,0,0,1,1.6,1.51,23.93,23.93,0,0,0,.06,2.44h-.69a2.56,2.56,0,0,1-.06-.55h0a1.47,1.47,0,0,1-1.29.65C63,35.27,62.37,34.91,62.37,34.09Z"/><path class="cls-2" d="M68.18,35.24c-.75,0-1.13-.43-1.12-1.2V32h-.74v-.62h.74v-1.1h.75v1.1h1V32h-1v2c0,.44.13.64.54.65a1.09,1.09,0,0,0,.45-.1l0,.62a1.94,1.94,0,0,1-.65.11"/><path class="cls-2" d="M70,29.46a.5.5,0,0,1,.51.49.51.51,0,1,1-.51-.49m.38,5.72h-.76V31.34h.76v3.84Z"/><path class="cls-2" d="M73.54,34.64a1.39,1.39,0,1,0-1.28-1.39,1.24,1.24,0,0,0,1.28,1.39m0-3.41a2,2,0,1,1-2.07,2A1.9,1.9,0,0,1,73.54,31.23Z"/><path class="cls-2" d="M76.66,35.18c0-1.28,0-2.61,0-3.84h.72c0,.16,0,.45,0,.63h0a1.34,1.34,0,0,1,1.25-.74c1,0,1.43.61,1.43,1.56v2.38h-.76V33c0-.68-.19-1.17-.87-1.17s-1,.57-1,1.26v2h-.76"/><path class="cls-2" d="M81.24,32.86c-.5-1.26.95-2,2.14-1.47a1.3,1.3,0,0,1,.6.47l-.53.45a1,1,0,0,0-.89-.48c-.38,0-.71.12-.71.5,0,.59.92.51,1.39.73A1.08,1.08,0,0,1,84,34c.06,1.56-2.45,1.51-3.08.55l.54-.46a1.24,1.24,0,0,0,1,.53c.42,0,.76-.14.76-.56,0-.73-1.27-.51-1.76-.95a.84.84,0,0,1-.26-.3"/><path class="cls-2" d="M86.79,31.88c-.65,0-1,.57-1,1.26v2H85V29.05h.76c0,.95,0,1.94,0,2.87A1.35,1.35,0,0,1,87,31.23a1.37,1.37,0,0,1,1.43,1.56v2.38h-.76V33.05c0-.67-.19-1.17-.87-1.17"/><path class="cls-2" d="M90.09,29.46a.5.5,0,0,1,.51.49.51.51,0,1,1-.51-.49m.38,5.72h-.76V31.34h.76v3.84Z"/><path class="cls-2" d="M93.81,34.64a1.39,1.39,0,0,0,0-2.78,1.39,1.39,0,0,0,0,2.78m.13.64a1.59,1.59,0,0,1-1.35-.68h0v2.52H91.8V31.34h.75v.6h0a1.54,1.54,0,0,1,1.39-.7,1.85,1.85,0,0,1,1.92,2A1.84,1.84,0,0,1,93.94,35.28Z"/></svg>