<svg id="Layer_1" data-name="Layer 1" xmlns="http://www.w3.org/2000/svg" viewBox="0 0 106.57 37.17"><defs><style>.cls-1{fill:none;stroke:#3d4752;stroke-miterlimit:10;}.cls-2{fill:#3d4752;}</style></defs><title>erd-symbols</title><line class="cls-1" y1="13.89" x2="106.57" y2="13.89"/><line class="cls-1" x1="79.25" y1="13.89" x2="102.07" y2="27.39"/><line class="cls-1" x1="78.67" y1="13.89" x2="102.07" y2="0.39"/><path class="cls-2" d="M44.67,29.47c.58,1.47,1.13,3,1.73,4.41l1.69-4.41h1.25v5.73h-.8c0-1.6,0-3.23,0-4.8l-1.9,4.8h-.51c-.64-1.6-1.25-3.22-1.91-4.8v4.8h-.78V29.47h1.25"/><path class="cls-2" d="M52,34.71a1.09,1.09,0,0,0,1.11-1.33c-.83,0-1.9,0-1.9.73,0,.44.35.59.79.6m-1.56-.58c0-1.24,1.4-1.26,2.67-1.3,0-.65-.35-.95-.95-.95a1.6,1.6,0,0,0-1.09.45l-.4-.49a2.26,2.26,0,0,1,1.57-.58,1.42,1.42,0,0,1,1.6,1.51,23.92,23.92,0,0,0,.06,2.44h-.69a2.56,2.56,0,0,1-.06-.55h0a1.47,1.47,0,0,1-1.29.65C51,35.31,50.41,34.94,50.41,34.12Z"/><path class="cls-2" d="M55.09,35.21c0-1.28,0-2.61,0-3.84h.72c0,.16,0,.45,0,.63h0a1.34,1.34,0,0,1,1.25-.74c1,0,1.43.61,1.43,1.56v2.38h-.76V33.08c0-.68-.19-1.17-.87-1.17s-1,.57-1,1.26v2h-.76"/><path class="cls-2" d="M60.07,31.37c.41,1,.78,2,1.21,3l1.06-3h.81l-1.86,4.75a1.4,1.4,0,0,1-1.83,1l.07-.67a.79.79,0,0,0,.83-.1,4.73,4.73,0,0,0,.51-1.12l-1.64-3.84h.85"/></svg>