<svg id="Layer_1" data-name="Layer 1" xmlns="http://www.w3.org/2000/svg" viewBox="0 0 106.57 37.17"><defs><style>.cls-1{fill:none;stroke:#3d4752;stroke-miterlimit:10;stroke-width:0.9px;}.cls-2{fill:#3d4752;}</style></defs><title>erd-symbols</title><line class="cls-1" x1="79.33" y1="0.7" x2="79.33" y2="27.07"/><line class="cls-1" x1="0.1" y1="13.89" x2="106.47" y2="13.89"/><line class="cls-1" x1="79.2" y1="13.89" x2="101.97" y2="27.39"/><line class="cls-1" x1="78.57" y1="13.89" x2="101.97" y2="0.39"/><path class="cls-2" d="M32.29,34.63a2.07,2.07,0,0,0,2.18-2.3,2.17,2.17,0,1,0-4.34,0,2.07,2.07,0,0,0,2.16,2.3M35.1,31.1a3.36,3.36,0,0,1,0,2.45,3.1,3.1,0,0,1-5.62,0,3.44,3.44,0,0,1,0-2.45,2.83,2.83,0,0,1,2.8-1.78A2.86,2.86,0,0,1,35.1,31.1Z"/><path class="cls-2" d="M36.38,35.2c0-1.28,0-2.61,0-3.84h.72c0,.16,0,.45,0,.63h0a1.34,1.34,0,0,1,1.25-.74c1,0,1.43.61,1.43,1.56V35.2H39V33.07c0-.68-.19-1.17-.87-1.17s-1,.57-1,1.26v2h-.76"/><path class="cls-2" d="M42.83,31.26c1.3,0,1.9.87,1.84,2.25h-3a1.2,1.2,0,0,0,1.25,1.17A1.28,1.28,0,0,0,44,34.09l.53.43a1.92,1.92,0,0,1-1.65.79,1.86,1.86,0,0,1-2-2,1.86,1.86,0,0,1,2-2m1.08,1.68a1.07,1.07,0,0,0-1.54-1,1.12,1.12,0,0,0-.75,1Z"/><path class="cls-2" d="M49.59,34.67a1.39,1.39,0,1,0-1.28-1.39,1.24,1.24,0,0,0,1.28,1.39m0-3.41a2,2,0,1,1-2.07,2A1.9,1.9,0,0,1,49.59,31.26Z"/><path class="cls-2" d="M52.72,35.2c0-1.28,0-2.61,0-3.84h.72c0,.16,0,.48,0,.65h0a1.3,1.3,0,0,1,1.47-.72l0,.7a1.1,1.1,0,0,0-1.43,1.19v2h-.76"/><path class="cls-2" d="M58.42,32a1.34,1.34,0,0,1,1.22-.74,1.2,1.2,0,0,1,1.19.77,1.41,1.41,0,0,1,1.3-.77c1,0,1.43.61,1.43,1.56V35.2h-.76V33.07c0-.66-.19-1.17-.85-1.17-1.39,0-.87,2-1,3.3h-.76V32.92c0-.61-.21-1-.81-1s-1,.58-1,1.26v2h-.76c0-1.28,0-2.61,0-3.84h.72c0,.16,0,.45,0,.63h0"/><path class="cls-2" d="M66.14,34.7a1.09,1.09,0,0,0,1.11-1.33c-.83,0-1.9,0-1.9.73,0,.44.35.59.79.6m-1.56-.58c0-1.24,1.4-1.26,2.67-1.3,0-.65-.35-.95-.95-.95a1.6,1.6,0,0,0-1.09.45l-.4-.49a2.26,2.26,0,0,1,1.57-.58A1.42,1.42,0,0,1,68,32.76,23.92,23.92,0,0,0,68,35.2h-.69a2.56,2.56,0,0,1-.06-.55h0A1.47,1.47,0,0,1,66,35.3C65.18,35.3,64.58,34.93,64.58,34.12Z"/><path class="cls-2" d="M69.25,35.2c0-1.28,0-2.61,0-3.84h.72c0,.16,0,.45,0,.63h0a1.34,1.34,0,0,1,1.25-.74c1,0,1.43.61,1.43,1.56V35.2h-.76V33.07c0-.68-.19-1.17-.87-1.17s-1,.57-1,1.26v2h-.76"/><path class="cls-2" d="M74.23,31.36c.41,1,.78,2,1.21,3l1.06-3h.81l-1.86,4.75a1.4,1.4,0,0,1-1.83,1l.07-.67a.79.79,0,0,0,.83-.1A4.73,4.73,0,0,0,75,35.2l-1.64-3.84h.85"/></svg>