<svg id="Layer_1" data-name="Layer 1" xmlns="http://www.w3.org/2000/svg" viewBox="0 0 106.57 37.17"><defs><style>.cls-1{fill:none;stroke:#3d4752;stroke-miterlimit:10;}.cls-2{fill:#3d4752;}</style></defs><title>erd-symbols</title><line class="cls-1" x1="96.03" y1="23.8" x2="96.03" y2="4"/><line class="cls-1" x1="0.05" y1="13.9" x2="106.52" y2="13.9"/><path class="cls-2" d="M48.6,34.63a2.07,2.07,0,0,0,2.18-2.3,2.17,2.17,0,1,0-4.34,0,2.07,2.07,0,0,0,2.16,2.3m2.82-3.52a3.36,3.36,0,0,1,0,2.45,3.1,3.1,0,0,1-5.62,0,3.44,3.44,0,0,1,0-2.45,3.11,3.11,0,0,1,5.62,0Z"/><path class="cls-2" d="M52.7,35.21c0-1.28,0-2.61,0-3.84h.72c0,.16,0,.45,0,.63h0a1.34,1.34,0,0,1,1.25-.74c1,0,1.43.61,1.43,1.56v2.38h-.76V33.08c0-.68-.19-1.17-.87-1.17s-1,.57-1,1.26v2H52.7"/><path class="cls-2" d="M59.15,31.27c1.3,0,1.9.87,1.84,2.25h-3a1.2,1.2,0,0,0,1.25,1.17,1.28,1.28,0,0,0,1.12-.58l.53.43a1.92,1.92,0,0,1-1.65.79,1.86,1.86,0,0,1-2-2,1.86,1.86,0,0,1,2-2M60.23,33a1.07,1.07,0,0,0-1.54-1,1.12,1.12,0,0,0-.75,1Z"/></svg>