<svg id="Layer_1" data-name="Layer 1" xmlns="http://www.w3.org/2000/svg" viewBox="0 0 106.57 37.17"><defs><style>.cls-1{fill:none;stroke:#3d4752;stroke-miterlimit:10;}.cls-2{fill:#3d4752;}</style></defs><title>erd-symbols</title><line class="cls-1" x1="84.79" y1="23.77" x2="84.79" y2="3.97"/><line class="cls-1" x1="-0.08" y1="13.87" x2="106.57" y2="13.87"/><line class="cls-1" x1="96.04" y1="23.77" x2="96.04" y2="3.97"/><path class="cls-2" d="M20.8,34.65A2.07,2.07,0,0,0,23,32.35,2.08,2.08,0,0,0,20.8,30a2.07,2.07,0,0,0-2.16,2.3,2.07,2.07,0,0,0,2.16,2.3m2.82-3.52a3.36,3.36,0,0,1,0,2.45,2.87,2.87,0,0,1-2.82,1.8,2.85,2.85,0,0,1-2.8-1.8,3.44,3.44,0,0,1,0-2.45,2.83,2.83,0,0,1,2.8-1.78A2.86,2.86,0,0,1,23.62,31.12Z"/><path class="cls-2" d="M24.9,35.22c0-1.28,0-2.61,0-3.84h.72c0,.16,0,.45,0,.63h0a1.34,1.34,0,0,1,1.25-.74c1,0,1.43.61,1.43,1.56v2.38h-.76V33.09c0-.68-.19-1.17-.87-1.17s-1,.57-1,1.26v2H24.9"/><path class="cls-2" d="M31.35,31.28c1.3,0,1.9.87,1.84,2.25h-3a1.2,1.2,0,0,0,1.25,1.17,1.28,1.28,0,0,0,1.12-.58l.53.43a1.92,1.92,0,0,1-1.65.79,1.86,1.86,0,0,1-2-2,1.86,1.86,0,0,1,2-2M32.43,33a1.07,1.07,0,0,0-1.54-1,1.12,1.12,0,0,0-.75,1Z"/><path class="cls-2" d="M37.65,29.64a5.7,5.7,0,0,0-1,3.25,5.64,5.64,0,0,0,1,3.25l-.55.36a6.2,6.2,0,0,1-.86-5.56,6.5,6.5,0,0,1,.86-1.65"/><path class="cls-2" d="M40.12,34.72a1.09,1.09,0,0,0,1.11-1.33c-.83,0-1.9,0-1.9.73,0,.44.35.59.79.6m-1.56-.58c0-1.24,1.4-1.26,2.67-1.3,0-.65-.35-.95-.95-.95a1.6,1.6,0,0,0-1.09.45l-.4-.49a2.26,2.26,0,0,1,1.57-.58A1.42,1.42,0,0,1,42,32.78,23.92,23.92,0,0,0,42,35.22h-.69a2.56,2.56,0,0,1-.06-.55h0a1.47,1.47,0,0,1-1.29.65C39.16,35.32,38.56,35,38.56,34.14Z"/><path class="cls-2" d="M43.24,35.22c0-1.28,0-2.61,0-3.84h.72c0,.16,0,.45,0,.63h0a1.34,1.34,0,0,1,1.25-.74c1,0,1.43.61,1.43,1.56v2.38H45.9V33.09c0-.68-.19-1.17-.87-1.17s-1,.57-1,1.26v2h-.76"/><path class="cls-2" d="M49.76,31.91a1.39,1.39,0,0,0,0,2.78,1.39,1.39,0,0,0,0-2.78m-.14-.63A1.7,1.7,0,0,1,51,32V29.1h.76v6.12H51a3.73,3.73,0,0,0,0-.61,1.6,1.6,0,0,1-1.39.71,1.84,1.84,0,0,1-1.94-2A1.86,1.86,0,0,1,49.62,31.28Z"/><path class="cls-2" d="M56.92,34.69a1.39,1.39,0,1,0-1.28-1.39,1.24,1.24,0,0,0,1.28,1.39m0-3.41a2,2,0,1,1-2.07,2A1.9,1.9,0,0,1,56.92,31.28Z"/><path class="cls-2" d="M60,35.22c0-1.28,0-2.61,0-3.84h.72c0,.16,0,.45,0,.63h0A1.34,1.34,0,0,1,62,31.28c1,0,1.43.61,1.43,1.56v2.38h-.76V33.09c0-.68-.19-1.17-.87-1.17s-1,.57-1,1.26v2H60"/><polyline class="cls-2" points="65.54 35.22 64.78 35.22 64.78 32.16 64.78 29.1 65.54 29.1 65.54 32.16 65.54 35.22"/><path class="cls-2" d="M67.13,31.38c.41,1,.78,2,1.21,3l1.06-3h.81l-1.86,4.75a1.4,1.4,0,0,1-1.83,1l.07-.67a.79.79,0,0,0,.83-.1,4.73,4.73,0,0,0,.51-1.12l-1.64-3.84h.85"/><path class="cls-2" d="M74.7,34.76a1.39,1.39,0,1,0-1.28-1.39,1.24,1.24,0,0,0,1.28,1.39m0-3.41a2,2,0,1,1-2.07,2A1.9,1.9,0,0,1,74.7,31.35Z"/><path class="cls-2" d="M77.83,35.29c0-1.28,0-2.61,0-3.84h.72c0,.16,0,.45,0,.63h0a1.34,1.34,0,0,1,1.25-.74c1,0,1.43.61,1.43,1.56v2.38h-.76V33.16c0-.68-.19-1.17-.87-1.17s-1,.57-1,1.26v2h-.76"/><path class="cls-2" d="M84.28,31.35c1.3,0,1.9.87,1.84,2.25h-3a1.2,1.2,0,0,0,1.25,1.17,1.28,1.28,0,0,0,1.12-.58l.53.43a1.92,1.92,0,0,1-1.65.79,1.86,1.86,0,0,1-2-2,1.86,1.86,0,0,1,2-2M85.35,33a1.07,1.07,0,0,0-1.54-1,1.12,1.12,0,0,0-.75,1Z"/><path class="cls-2" d="M87.07,36.21a5.7,5.7,0,0,0,1-3.25,5.64,5.64,0,0,0-1-3.25l.55-.36a6.2,6.2,0,0,1,.86,5.56,6.51,6.51,0,0,1-.86,1.65"/></svg>