<svg id="Layer_1" data-name="Layer 1" xmlns="http://www.w3.org/2000/svg" viewBox="0 0 106.57 37.17"><defs><style>.cls-1{fill:none;stroke:#3d4752;stroke-miterlimit:10;stroke-width:0.9px;}.cls-2{fill:#3d4752;}</style></defs><title>erd-chens</title><path class="cls-1" d="M97.14,13.87h4.59m-18.45,0H92.5m-23,0h9.22m-23.08,0h9.22m-23.08,0H51m-23,0h9.22m-23.08,0h9.22m-18.45,0H9.48"/><path class="cls-2" d="M17.35,34.64a1.39,1.39,0,1,0-1.28-1.39,1.24,1.24,0,0,0,1.28,1.39m0-3.41a2,2,0,1,1,0,4,2,2,0,1,1,0-4Z"/><path class="cls-2" d="M22.49,34.64a1.39,1.39,0,0,0,0-2.78,1.39,1.39,0,0,0,0,2.78m.13.64a1.59,1.59,0,0,1-1.35-.68h0v2.52h-.76V31.34h.75v.6h0a1.54,1.54,0,0,1,1.39-.7,1.85,1.85,0,0,1,1.92,2A1.84,1.84,0,0,1,22.62,35.28Z"/><path class="cls-2" d="M26.84,35.24c-.75,0-1.13-.43-1.12-1.2V32H25v-.62h.74v-1.1h.75v1.1h1V32h-1v2c0,.44.13.64.54.65a1.09,1.09,0,0,0,.45-.1l0,.62a1.94,1.94,0,0,1-.65.11"/><path class="cls-2" d="M28.67,29.46a.5.5,0,0,1,.51.49.51.51,0,1,1-.51-.49M29,35.18h-.76V31.34H29v3.84Z"/><path class="cls-2" d="M32.19,34.64a1.39,1.39,0,1,0-1.28-1.39,1.24,1.24,0,0,0,1.28,1.39m0-3.41a2,2,0,1,1,0,4,2,2,0,1,1,0-4Z"/><path class="cls-2" d="M35.32,35.18c0-1.28,0-2.61,0-3.84H36c0,.16,0,.45,0,.63h0a1.34,1.34,0,0,1,1.25-.74c1,0,1.43.61,1.43,1.56v2.38H38V33c0-.68-.19-1.17-.87-1.17s-1,.57-1,1.26v2h-.76"/><path class="cls-2" d="M41.31,34.67a1.09,1.09,0,0,0,1.11-1.33c-.83,0-1.9,0-1.9.73,0,.44.35.59.79.6m-1.56-.58c0-1.24,1.4-1.26,2.67-1.3,0-.65-.35-.95-.95-.95a1.6,1.6,0,0,0-1.09.45l-.4-.49a2.26,2.26,0,0,1,1.57-.58,1.42,1.42,0,0,1,1.6,1.51,23.93,23.93,0,0,0,.06,2.44h-.69a2.56,2.56,0,0,1-.06-.55h0a1.47,1.47,0,0,1-1.29.65C40.35,35.27,39.75,34.91,39.75,34.09Z"/><polyline class="cls-2" points="45.2 35.18 44.44 35.18 44.44 32.12 44.44 29.05 45.2 29.05 45.2 32.12 45.2 35.18"/><path class="cls-2" d="M48.52,35.18c0-1.28,0-2.61,0-3.84h.72c0,.16,0,.48,0,.65h0a1.3,1.3,0,0,1,1.47-.72l0,.7a1.1,1.1,0,0,0-1.43,1.19v2h-.76"/><path class="cls-2" d="M53,31.23c1.3,0,1.9.87,1.84,2.25h-3a1.2,1.2,0,0,0,1.25,1.17,1.28,1.28,0,0,0,1.12-.58l.53.43a1.92,1.92,0,0,1-1.65.79,1.86,1.86,0,0,1-2-2,1.86,1.86,0,0,1,2-2m1.08,1.68a1.07,1.07,0,0,0-1.54-1,1.12,1.12,0,0,0-.75,1Z"/><polyline class="cls-2" points="56.73 35.18 55.97 35.18 55.97 32.12 55.97 29.05 56.73 29.05 56.73 32.12 56.73 35.18"/><path class="cls-2" d="M59.34,34.67a1.09,1.09,0,0,0,1.11-1.33c-.83,0-1.9,0-1.9.73,0,.44.35.59.79.6m-1.56-.58c0-1.24,1.4-1.26,2.67-1.3,0-.65-.35-.95-.95-.95a1.6,1.6,0,0,0-1.09.45l-.4-.49a2.26,2.26,0,0,1,1.57-.58,1.42,1.42,0,0,1,1.6,1.51,23.93,23.93,0,0,0,.06,2.44h-.69a2.56,2.56,0,0,1-.06-.55h0a1.47,1.47,0,0,1-1.29.65C58.37,35.27,57.77,34.91,57.77,34.09Z"/><path class="cls-2" d="M63.59,35.24c-.75,0-1.13-.43-1.12-1.2V32h-.74v-.62h.74v-1.1h.75v1.1h1V32h-1v2c0,.44.13.64.54.65a1.09,1.09,0,0,0,.45-.1l0,.62a1.94,1.94,0,0,1-.65.11"/><path class="cls-2" d="M65.42,29.46a.5.5,0,0,1,.51.49.51.51,0,1,1-.51-.49m.38,5.72H65V31.34h.76v3.84Z"/><path class="cls-2" d="M68.94,34.64a1.39,1.39,0,1,0-1.28-1.39,1.24,1.24,0,0,0,1.28,1.39m0-3.41a2,2,0,1,1-2.07,2A1.9,1.9,0,0,1,68.94,31.23Z"/><path class="cls-2" d="M72.07,35.18c0-1.28,0-2.61,0-3.84h.72c0,.16,0,.45,0,.63h0a1.34,1.34,0,0,1,1.25-.74c1,0,1.43.61,1.43,1.56v2.38h-.76V33c0-.68-.19-1.17-.87-1.17s-1,.57-1,1.26v2h-.76"/><path class="cls-2" d="M76.65,32.86c-.5-1.26.95-2,2.14-1.47a1.3,1.3,0,0,1,.6.47l-.53.45a1,1,0,0,0-.89-.48c-.38,0-.71.12-.71.5,0,.59.92.51,1.39.73a1.08,1.08,0,0,1,.78,1c.06,1.56-2.45,1.51-3.08.55l.54-.46a1.24,1.24,0,0,0,1,.53c.42,0,.76-.14.76-.56,0-.73-1.27-.51-1.76-.95a.84.84,0,0,1-.26-.3"/><path class="cls-2" d="M82.19,31.88c-.65,0-1,.57-1,1.26v2H80.4V29.05h.76c0,.95,0,1.94,0,2.87a1.35,1.35,0,0,1,1.21-.69,1.37,1.37,0,0,1,1.43,1.56v2.38h-.76V33.05c0-.67-.19-1.17-.87-1.17"/><path class="cls-2" d="M85.5,29.46A.5.5,0,0,1,86,30a.51.51,0,1,1-.51-.49m.38,5.72h-.76V31.34h.76v3.84Z"/><path class="cls-2" d="M89.22,34.64a1.39,1.39,0,0,0,0-2.78,1.39,1.39,0,0,0,0,2.78m.13.64A1.59,1.59,0,0,1,88,34.6h0v2.52h-.76V31.34H88v.6h0a1.54,1.54,0,0,1,1.39-.7,1.85,1.85,0,0,1,1.92,2A1.84,1.84,0,0,1,89.35,35.28Z"/></svg>