<svg id="Layer_1" data-name="Layer 1" xmlns="http://www.w3.org/2000/svg" viewBox="0 0 106.57 37.17"><defs><style>.cls-1{fill:none;stroke:#3d4752;stroke-miterlimit:10;stroke-width:0.9px;}.cls-2{fill:#fff;}.cls-3{fill:#3d4752;}</style></defs><title>erd-symbols</title><line class="cls-1" x1="78.67" y1="13.89" x2="102.07" y2="0.39"/><line class="cls-1" x1="78.67" y1="13.89" x2="77.5" y2="14.56"/><line class="cls-1" x1="0.2" y1="13.89" x2="106.57" y2="13.89"/><line class="cls-1" x1="79.25" y1="13.89" x2="102.07" y2="27.39"/><line class="cls-1" x1="79.25" y1="13.89" x2="78.13" y2="13.21"/><path class="cls-2" d="M70.44,13.89a4.95,4.95,0,1,1,4.95,5A4.94,4.94,0,0,1,70.44,13.89Z"/><path class="cls-1" d="M70.44,13.89a4.95,4.95,0,1,1,4.95,5A4.94,4.94,0,0,1,70.44,13.89Z"/><polyline class="cls-3" points="32.99 30.18 29.75 34.5 33.04 34.5 33.04 34.85 33.04 35.21 28.78 35.21 28.78 34.86 28.78 34.5 32.02 30.18 28.85 30.18 28.85 29.83 28.85 29.47 32.99 29.47 32.99 29.83 32.99 30.18"/><path class="cls-3" d="M35.6,31.26c1.3,0,1.9.87,1.84,2.25h-3a1.2,1.2,0,0,0,1.25,1.17,1.28,1.28,0,0,0,1.12-.58l.53.43a1.92,1.92,0,0,1-1.65.79,1.86,1.86,0,0,1-2-2,1.86,1.86,0,0,1,2-2m1.08,1.68a1.07,1.07,0,0,0-1.54-1,1.12,1.12,0,0,0-.75,1Z"/><path class="cls-3" d="M38.51,35.21c0-1.28,0-2.61,0-3.84h.72c0,.16,0,.48,0,.65h0a1.3,1.3,0,0,1,1.47-.72l0,.7a1.1,1.1,0,0,0-1.43,1.19v2h-.76"/><path class="cls-3" d="M43.11,34.67a1.39,1.39,0,1,0-1.28-1.39,1.24,1.24,0,0,0,1.28,1.39m0-3.41a2,2,0,1,1-2.07,2A1.9,1.9,0,0,1,43.11,31.26Z"/><path class="cls-3" d="M50.07,34.67a1.39,1.39,0,1,0-1.28-1.39,1.24,1.24,0,0,0,1.28,1.39m0-3.41a2,2,0,1,1-2.07,2A1.9,1.9,0,0,1,50.07,31.26Z"/><path class="cls-3" d="M53.19,35.21c0-1.28,0-2.61,0-3.84h.72c0,.16,0,.48,0,.65h0a1.3,1.3,0,0,1,1.47-.72l0,.7A1.1,1.1,0,0,0,54,33.19v2h-.76"/><path class="cls-3" d="M58.9,32a1.34,1.34,0,0,1,1.22-.74,1.2,1.2,0,0,1,1.19.77,1.41,1.41,0,0,1,1.3-.77c1,0,1.43.61,1.43,1.56v2.38h-.76V33.08c0-.66-.19-1.17-.85-1.17-1.39,0-.87,2-1,3.3H60.7V32.92c0-.61-.21-1-.81-1s-1,.58-1,1.26v2h-.76c0-1.28,0-2.61,0-3.84h.72c0,.16,0,.45,0,.63h0"/><path class="cls-3" d="M66.62,34.71a1.09,1.09,0,0,0,1.11-1.33c-.83,0-1.9,0-1.9.73,0,.44.35.59.79.6m-1.56-.58c0-1.24,1.4-1.26,2.67-1.3,0-.65-.35-.95-.95-.95a1.6,1.6,0,0,0-1.09.45l-.4-.49a2.26,2.26,0,0,1,1.57-.58,1.42,1.42,0,0,1,1.6,1.51,23.92,23.92,0,0,0,.06,2.44h-.69a2.56,2.56,0,0,1-.06-.55h0a1.47,1.47,0,0,1-1.29.65C65.65,35.31,65.05,34.94,65.05,34.12Z"/><path class="cls-3" d="M69.73,35.21c0-1.28,0-2.61,0-3.84h.72c0,.16,0,.45,0,.63h0a1.34,1.34,0,0,1,1.25-.74c1,0,1.43.61,1.43,1.56v2.38h-.76V33.08c0-.68-.19-1.17-.87-1.17s-1,.57-1,1.26v2h-.76"/><path class="cls-3" d="M74.71,31.37c.41,1,.78,2,1.21,3l1.06-3h.81l-1.86,4.75a1.4,1.4,0,0,1-1.83,1l.07-.67a.79.79,0,0,0,.83-.1,4.73,4.73,0,0,0,.51-1.12l-1.64-3.84h.85"/></svg>