<svg id="Layer_1" data-name="Layer 1" xmlns="http://www.w3.org/2000/svg" viewBox="0 0 106.57 37.17"><defs><style>.cls-1{fill:#3d4752;}.cls-2{fill:none;stroke:#3d4752;stroke-miterlimit:10;stroke-width:0.9px;}.cls-3{fill:#fff;}</style></defs><title>erd-symbols</title><polyline class="cls-1" points="36.2 30.18 32.96 34.5 36.24 34.5 36.24 34.85 36.24 35.21 31.98 35.21 31.98 34.86 31.98 34.51 35.22 30.18 32.05 30.18 32.05 29.83 32.05 29.48 36.2 29.48 36.2 29.83 36.2 30.18"/><path class="cls-1" d="M38.8,31.27c1.3,0,1.9.87,1.84,2.25h-3a1.2,1.2,0,0,0,1.25,1.17A1.28,1.28,0,0,0,40,34.1l.53.43a1.92,1.92,0,0,1-1.65.79,1.86,1.86,0,0,1-2-2,1.86,1.86,0,0,1,2-2m1.08,1.68a1.07,1.07,0,0,0-1.54-1,1.12,1.12,0,0,0-.75,1Z"/><path class="cls-1" d="M41.71,35.21c0-1.28,0-2.61,0-3.84h.72c0,.16,0,.48,0,.65h0a1.3,1.3,0,0,1,1.47-.72l0,.7a1.1,1.1,0,0,0-1.43,1.19v2h-.76"/><path class="cls-1" d="M46.31,34.68A1.39,1.39,0,1,0,45,33.28a1.24,1.24,0,0,0,1.28,1.39m0-3.41a2,2,0,1,1-2.07,2A1.9,1.9,0,0,1,46.31,31.27Z"/><path class="cls-1" d="M53.27,34.68A1.39,1.39,0,1,0,52,33.28a1.24,1.24,0,0,0,1.28,1.39m0-3.41a2,2,0,1,1-2.07,2A1.9,1.9,0,0,1,53.27,31.27Z"/><path class="cls-1" d="M56.39,35.21c0-1.28,0-2.61,0-3.84h.72c0,.16,0,.48,0,.65h0a1.3,1.3,0,0,1,1.47-.72l0,.7a1.1,1.1,0,0,0-1.43,1.19v2h-.76"/><path class="cls-1" d="M63.17,34.68a1.39,1.39,0,1,0-1.28-1.39,1.24,1.24,0,0,0,1.28,1.39m0-3.41a2,2,0,1,1-2.07,2A1.9,1.9,0,0,1,63.17,31.27Z"/><path class="cls-1" d="M66.29,35.21c0-1.28,0-2.61,0-3.84H67c0,.16,0,.45,0,.63h0a1.34,1.34,0,0,1,1.25-.74c1,0,1.43.61,1.43,1.56v2.38H69V33.08c0-.68-.19-1.17-.87-1.17s-1,.57-1,1.26v2h-.76"/><path class="cls-1" d="M72.74,31.27c1.3,0,1.9.87,1.84,2.25h-3a1.2,1.2,0,0,0,1.25,1.17,1.28,1.28,0,0,0,1.12-.58l.53.43a1.92,1.92,0,0,1-1.65.79,1.86,1.86,0,0,1-2-2,1.86,1.86,0,0,1,2-2m1.08,1.68a1.07,1.07,0,0,0-1.54-1,1.12,1.12,0,0,0-.75,1Z"/><line class="cls-2" x1="91.06" y1="16.99" x2="91.06" y2="7.99"/><rect class="cls-1" x="90.61" y="18.02" width="0.9" height="1.35"/><rect class="cls-1" x="90.61" y="7.67" width="0.9" height="1.35"/><line class="cls-2" x1="0.03" y1="13.52" x2="106.54" y2="13.52"/><path class="cls-3" d="M95.56,13.52A4.5,4.5,0,1,1,91.06,9,4.48,4.48,0,0,1,95.56,13.52Z"/><path class="cls-2" d="M95.56,13.52A4.5,4.5,0,1,1,91.06,9,4.48,4.48,0,0,1,95.56,13.52Z"/></svg>